<svg width="66" height="66" viewBox="0 0 66 66" fill="none" xmlns="http://www.w3.org/2000/svg">
<circle cx="33" cy="33" r="33" fill="#FFB039"/>
<path d="M18.1562 24.5586C16.6641 24.1211 15.6094 23.5117 14.9922 22.7305C14.3828 21.9492 14.0781 21.0078 14.0781 19.9062C14.0781 19.1797 14.1953 18.5195 14.4297 17.9258C14.6719 17.332 15.0078 16.8203 15.4375 16.3906C15.9922 15.8359 16.6094 15.4531 17.2891 15.2422C17.7031 15.1094 18.3086 15.0117 19.1055 14.9492V13.3906H20.2188V14.9727C21.4922 15.0742 22.4922 15.3867 23.2188 15.9102C24.5391 16.7461 25.2227 18.1016 25.2695 19.9766H22.1875C22.125 19.2812 22.0078 18.7734 21.8359 18.4531C21.5391 17.8984 21 17.5938 20.2188 17.5391V22.0039C22.0781 22.6445 23.3281 23.2109 23.9688 23.7031C25.0234 24.5234 25.5508 25.6797 25.5508 27.1719C25.5508 29.1406 24.8281 30.5703 23.3828 31.4609C22.5 32.0078 21.4531 32.3281 20.2422 32.4219V34.7773H19.1055V32.4453C17.5664 32.2734 16.418 31.9375 15.6602 31.4375C14.3242 30.5391 13.668 29.0078 13.6914 26.8438H16.8555C16.9648 27.8281 17.1172 28.4883 17.3125 28.8242C17.6172 29.3477 18.2148 29.6875 19.1055 29.8438V24.8398L18.1562 24.5586ZM20.2188 25.2266V29.8086C20.8359 29.7305 21.2852 29.5898 21.5664 29.3867C22.0586 29.0273 22.3047 28.4062 22.3047 27.5234C22.3047 26.8516 22.0742 26.3203 21.6133 25.9297C21.3398 25.7031 20.875 25.4688 20.2188 25.2266ZM19.1055 21.6758V17.5625C18.4258 17.5781 17.9219 17.7617 17.5938 18.1133C17.2656 18.457 17.1016 18.9297 17.1016 19.5312C17.1016 20.1875 17.3477 20.707 17.8398 21.0898C18.1133 21.3008 18.5352 21.4961 19.1055 21.6758Z" fill="white"/>
<path d="M41.6875 22.9297C40.8906 21.9766 39.75 21.5 38.2656 21.5C36.2344 21.5 34.8516 22.2578 34.1172 23.7734C33.6953 24.6484 33.4453 26.0391 33.3672 27.9453H26.875C26.9844 25.0547 27.5078 22.7188 28.4453 20.9375C30.2266 17.5469 33.3906 15.8516 37.9375 15.8516C41.5312 15.8516 44.3906 16.8516 46.5156 18.8516C48.6406 20.8359 49.7031 23.4688 49.7031 26.75C49.7031 29.2656 48.9531 31.5 47.4531 33.4531C46.4688 34.75 44.8516 36.1953 42.6016 37.7891L39.9297 39.6875C38.2578 40.875 37.1094 41.7344 36.4844 42.2656C35.875 42.7969 35.3594 43.4141 34.9375 44.1172H49.7734V50H26.5C26.5625 47.5625 27.0859 45.3359 28.0703 43.3203C29.0234 41.0547 31.2734 38.6562 34.8203 36.125C37.8984 33.9219 39.8906 32.3438 40.7969 31.3906C42.1875 29.9062 42.8828 28.2812 42.8828 26.5156C42.8828 25.0781 42.4844 23.8828 41.6875 22.9297Z" fill="white"/>
</svg>
