<svg width="66" height="66" viewBox="0 0 66 66" fill="none" xmlns="http://www.w3.org/2000/svg">
<circle cx="33" cy="33" r="33" fill="#FFB039"/>
<path d="M18.1562 24.5586C16.6641 24.1211 15.6094 23.5117 14.9922 22.7305C14.3828 21.9492 14.0781 21.0078 14.0781 19.9062C14.0781 19.1797 14.1953 18.5195 14.4297 17.9258C14.6719 17.332 15.0078 16.8203 15.4375 16.3906C15.9922 15.8359 16.6094 15.4531 17.2891 15.2422C17.7031 15.1094 18.3086 15.0117 19.1055 14.9492V13.3906H20.2188V14.9727C21.4922 15.0742 22.4922 15.3867 23.2188 15.9102C24.5391 16.7461 25.2227 18.1016 25.2695 19.9766H22.1875C22.125 19.2812 22.0078 18.7734 21.8359 18.4531C21.5391 17.8984 21 17.5938 20.2188 17.5391V22.0039C22.0781 22.6445 23.3281 23.2109 23.9688 23.7031C25.0234 24.5234 25.5508 25.6797 25.5508 27.1719C25.5508 29.1406 24.8281 30.5703 23.3828 31.4609C22.5 32.0078 21.4531 32.3281 20.2422 32.4219V34.7773H19.1055V32.4453C17.5664 32.2734 16.418 31.9375 15.6602 31.4375C14.3242 30.5391 13.668 29.0078 13.6914 26.8438H16.8555C16.9648 27.8281 17.1172 28.4883 17.3125 28.8242C17.6172 29.3477 18.2148 29.6875 19.1055 29.8438V24.8398L18.1562 24.5586ZM20.2188 25.2266V29.8086C20.8359 29.7305 21.2852 29.5898 21.5664 29.3867C22.0586 29.0273 22.3047 28.4062 22.3047 27.5234C22.3047 26.8516 22.0742 26.3203 21.6133 25.9297C21.3398 25.7031 20.875 25.4688 20.2188 25.2266ZM19.1055 21.6758V17.5625C18.4258 17.5781 17.9219 17.7617 17.5938 18.1133C17.2656 18.457 17.1016 18.9297 17.1016 19.5312C17.1016 20.1875 17.3477 20.707 17.8398 21.0898C18.1133 21.3008 18.5352 21.4961 19.1055 21.6758Z" fill="white"/>
<path d="M34.1875 22.7891C33.4375 23.7891 33.0781 25.125 33.1094 26.7969H26.875C26.9375 25.1094 27.2266 23.5078 27.7422 21.9922C28.2891 20.6641 29.1484 19.4375 30.3203 18.3125C31.1953 17.5156 32.2344 16.9062 33.4375 16.4844C34.6406 16.0625 36.1172 15.8516 37.8672 15.8516C41.1172 15.8516 43.7344 16.6953 45.7188 18.3828C47.7188 20.0547 48.7188 22.3047 48.7188 25.1328C48.7188 27.1328 48.125 28.8203 46.9375 30.1953C46.1875 31.0547 45.4062 31.6406 44.5938 31.9531C45.2031 31.9531 46.0781 32.4766 47.2188 33.5234C48.9219 35.1016 49.7734 37.2578 49.7734 39.9922C49.7734 42.8672 48.7734 45.3984 46.7734 47.5859C44.7891 49.7578 41.8438 50.8438 37.9375 50.8438C33.125 50.8438 29.7812 49.2734 27.9062 46.1328C26.9219 44.4609 26.375 42.2734 26.2656 39.5703H32.8281C32.8281 40.9297 33.0469 42.0547 33.4844 42.9453C34.2969 44.5859 35.7734 45.4062 37.9141 45.4062C39.2266 45.4062 40.3672 44.9609 41.3359 44.0703C42.3203 43.1641 42.8125 41.8672 42.8125 40.1797C42.8125 37.9453 41.9062 36.4531 40.0938 35.7031C39.0625 35.2812 37.4375 35.0703 35.2188 35.0703V30.2891C37.3906 30.2578 38.9062 30.0469 39.7656 29.6562C41.25 29 41.9922 27.6719 41.9922 25.6719C41.9922 24.375 41.6094 23.3203 40.8438 22.5078C40.0938 21.6953 39.0312 21.2891 37.6562 21.2891C36.0781 21.2891 34.9219 21.7891 34.1875 22.7891Z" fill="white"/>
</svg>
