<svg width="8" height="8" viewBox="0 0 8 8" fill="none" xmlns="http://www.w3.org/2000/svg">
<path d="M7.47501 3.04375C7.44372 2.94531 7.38342 2.85862 7.302 2.79504C7.22058 2.73147 7.12185 2.69398 7.01876 2.6875L5.16251 2.55938L4.47501 0.825C4.43747 0.729501 4.37213 0.64747 4.28744 0.589526C4.20275 0.531583 4.10262 0.500395 4.00001 0.5V0.5C3.8974 0.500395 3.79727 0.531583 3.71258 0.589526C3.62789 0.64747 3.56255 0.729501 3.52501 0.825L2.82501 2.56875L0.981261 2.6875C0.878294 2.6944 0.779768 2.73205 0.698428 2.79556C0.617088 2.85907 0.556678 2.94553 0.525011 3.04375C0.492493 3.14348 0.490593 3.25066 0.519556 3.35147C0.54852 3.45229 0.607019 3.54212 0.687511 3.60938L2.10626 4.80937L1.68439 6.46875C1.6552 6.58101 1.66045 6.69945 1.69946 6.80868C1.73847 6.91791 1.80944 7.01288 1.90314 7.08125C1.99408 7.14652 2.10244 7.18318 2.21434 7.18652C2.32623 7.18986 2.43658 7.15973 2.53126 7.1L3.99689 6.17188H4.00314L5.58126 7.16875C5.66221 7.22136 5.75659 7.24956 5.85314 7.25C5.93196 7.24938 6.0096 7.23069 6.08008 7.19538C6.15055 7.16006 6.212 7.10906 6.25968 7.04629C6.30736 6.98351 6.34002 6.91064 6.35514 6.83328C6.37026 6.75591 6.36743 6.67611 6.34689 6.6L5.90001 4.78438L7.31251 3.60938C7.393 3.54212 7.4515 3.45229 7.48047 3.35147C7.50943 3.25066 7.50753 3.14348 7.47501 3.04375Z" fill="#FFF8DC"/>
</svg>
